  <svg
    xmlns="http://www.w3.org/2000/svg"
    width="200.15"
    height="200.15"
    viewBox="0 0 215.25 215.25"
  >
    <g
      
      transform="matrix(2.067723274230957,0,0,2.067723274230957,0,0)"
      fill="#111111"
    >
      <path
        xmlns="http://www.w3.org/2000/svg"
        d="M0 0v104.1h104.1V0zm101.7 101.7H2.4V2.4h99.3z"
      />
    </g>
    <g
     
      transform="matrix(2.25,0,0,2.25,51.19866943359375,-7.780754566192627)"
      fill="#111111"
    >
      <path d="M45.264 40.897999999999996 l-4.3652 19.072 l-13.623 0 l-5.8008 -19.072 l-0.67383 0 l-4.4238 19.072 l-13.799 0 l4.4238 -19.072 l-2.666 0 l5.6543 -24.551 l16.084 0 l4.7461 15.41 l3.6035 -15.41 l13.857 0 l-5.6836 24.551 l2.666 0 z" />
    </g>
    <g
     
      transform="matrix(1.5028554201126099,0,0,1.5028554201126099,8,134.82927263573333)"
      fill="#111111"
    >
      <path d="M9.28 33.44 l0.16 -22.16 l3.84 0 l-0.24 28.88 l-5.96 0 l-3.24 -22.36 l0 22.36 l-3.84 0 l0 -28.88 l6.2 0 z M24.6 24.92 l-5.52 0 l0 11.28 l5.56 0 l0 3.8 l-9.36 0 l0 -28.56 l9.36 0 l0 3.8 l-5.56 0 l0 5.88 l5.52 0 l0 3.8 z M37.64 11.440000000000001 l-3.8 14.32 l3.76 14.24 l-3.4 0 l-2.08 -7.84 l-2.04 7.84 l-3.4 0 l3.76 -14.24 l-3.8 -14.32 l3.4 0 l2.08 7.88 l2.12 -7.88 l3.4 0 z M53.480000000000004 11.36 l0 3.84 l-4.76 0 l0 24.84 l-3.84 0 l0 -24.84 l-5.24 0 l0 -3.84 l13.84 0 z M66.24000000000001 40.08 l-4.08 0 l-2.2 -6.04 l-0.88 0 l0 6.04 l-3.8 0 l0 -28.64 l5.96 0 c2.64 0 4.76 2.12 4.76 4.76 l0 13.08 c0 1.72 -0.88 3.2 -2.24 4.04 z M59.08 15.239999999999998 l0 15 l2.16 0 c0.52 0 0.96 -0.44 0.96 -0.96 l0 -13.08 c0 -0.52 -0.44 -0.96 -0.96 -0.96 l-2.16 0 z M77.56 24.92 l-5.52 0 l0 11.28 l5.56 0 l0 3.8 l-9.36 0 l0 -28.56 l9.36 0 l0 3.8 l-5.56 0 l0 5.88 l5.52 0 l0 3.8 z M84.96000000000001 39.92 c-2.96 0 -5.36 -2.4 -5.36 -5.36 l0 -17.76 c0 -2.96 2.4 -5.36 5.36 -5.36 s5.36 2.4 5.36 5.36 l0 1.6 l-3.8 0 l0 -1.6 c0 -0.84 -0.72 -1.56 -1.56 -1.56 s-1.56 0.72 -1.56 1.56 l0 17.76 c0 0.84 0.72 1.56 1.56 1.56 s1.56 -0.72 1.56 -1.56 l0 -2.56 l3.8 0 l0 2.56 c0 2.96 -2.4 5.36 -5.36 5.36 z M96.12 11.36 l0 28.48 l-3.8 0 l0 -28.48 l3.8 0 z M101.92 34 l0 5.96 l-3.8 0 l0 -28.52 l5.92 0 c2.64 0 4.76 2.16 4.76 4.8 l0 13 c0 2.64 -2.12 4.76 -4.76 4.76 l-2.12 0 z M101.92 15.239999999999998 l0 14.96 l2.12 0 c0.56 0 0.96 -0.4 0.96 -0.96 l0 -13 c0 -0.56 -0.4 -1 -0.96 -1 l-2.12 0 z M120.12 24.92 l-5.52 0 l0 11.28 l5.56 0 l0 3.8 l-9.36 0 l0 -28.56 l9.36 0 l0 3.8 l-5.56 0 l0 5.88 l5.52 0 l0 3.8 z M127.64000000000001 40.24 c-3.04 0 -5.48 -2.48 -5.48 -5.48 l0 -4.36 l3.88 0 l0 4.36 c0 0.88 0.72 1.6 1.6 1.6 s1.56 -0.72 1.56 -1.6 l0 -3.8 l-7.04 -9.72 l0 -4.96 c0 -3.04 2.44 -5.52 5.48 -5.52 c3 0 5.44 2.48 5.44 5.52 l0 4.32 l-3.88 0 l0 -4.32 c0 -0.92 -0.68 -1.6 -1.56 -1.6 s-1.6 0.68 -1.6 1.6 l0 3.64 l7.04 9.72 l0 5.12 c0 3 -2.44 5.48 -5.44 5.48 z" />
    </g>
  </svg>
